<?xml version="1.0" standalone="no"?>
<!DOCTYPE svg PUBLIC "-//W3C//DTD SVG 20010904//EN"
 "http://www.w3.org/TR/2001/REC-SVG-20010904/DTD/svg10.dtd">
<svg version="1.0" xmlns="http://www.w3.org/2000/svg"
 width="160.000000pt" height="160.000000pt" viewBox="0 0 160.000000 160.000000"
 preserveAspectRatio="xMidYMid meet">
<metadata>
Created by potrace 1.14, written by Peter Selinger 2001-2017
</metadata>
<g transform="translate(0.000000,160.000000) scale(0.100000,-0.100000)"
fill="#000000" stroke="none">
<path d="M685 1574 c-27 -7 -53 -13 -57 -14 -3 0 -21 -12 -38 -26 -36 -31 -45
-28 -31 10 6 15 7 26 1 26 -14 0 -48 -48 -60 -85 -13 -40 -93 -122 -146 -150
-33 -17 -35 -20 -16 -23 25 -4 28 -15 8 -31 -16 -13 -50 -110 -42 -119 3 -3 6
0 6 6 0 7 4 12 8 12 12 0 3 -102 -13 -132 -15 -30 -8 -42 15 -27 23 14 26 11
22 -23 -9 -94 -9 -122 -2 -151 5 -18 14 -51 20 -75 7 -29 18 -46 34 -51 14 -6
27 -24 35 -51 7 -23 20 -56 30 -74 l19 -32 -29 -13 c-31 -13 -35 -25 -44 -105
-5 -52 -17 -68 -44 -58 -26 9 -31 24 -25 77 5 46 2 53 -29 89 -30 36 -36 38
-63 29 -37 -12 -43 -54 -16 -115 26 -60 24 -108 -6 -119 -15 -6 -21 -5 -17 1
3 6 -13 31 -37 56 -40 42 -45 45 -71 35 -43 -16 -48 -47 -19 -103 14 -26 31
-48 38 -48 17 0 18 -11 2 -33 -11 -14 -41 -23 -85 -26 -21 -2 -24 -38 -8 -77
19 -45 33 -56 56 -44 12 7 23 1 43 -25 15 -19 45 -42 67 -52 21 -9 39 -20 39
-23 0 -3 256 -6 569 -6 l569 -1 -8 21 c-6 18 1 25 49 49 32 16 57 24 59 17 7
-19 38 -10 64 17 46 50 42 73 -17 103 -32 17 -48 60 -22 60 8 0 34 18 57 40
37 35 41 42 33 66 -15 46 -35 51 -92 25 -27 -13 -52 -30 -55 -37 -6 -16 -32
-8 -40 12 -7 19 6 45 55 110 45 58 47 72 19 102 -20 21 -22 21 -53 6 -52 -27
-77 -55 -77 -88 -1 -45 -23 -70 -55 -62 -23 6 -25 10 -20 39 3 18 7 43 10 57
2 14 5 30 6 35 12 41 -40 77 -79 56 -36 -19 -43 -13 -28 23 8 19 17 57 21 83
3 26 8 57 10 68 2 11 4 26 4 32 1 7 7 12 14 10 8 -1 12 11 11 41 0 23 3 42 8
42 4 0 8 -9 8 -20 0 -11 5 -20 10 -20 6 0 10 13 10 29 0 16 11 52 24 80 17 38
22 62 18 98 -4 43 -3 46 12 34 9 -8 18 -12 20 -10 5 5 -36 143 -44 149 -4 3
-13 16 -19 28 -12 22 -11 23 11 17 12 -4 29 -10 36 -12 13 -6 16 6 4 22 -4 6
-23 22 -42 35 -19 13 -37 27 -40 31 -3 3 -18 13 -35 22 -24 13 -26 16 -10 16
11 0 37 -6 58 -13 20 -8 37 -11 37 -7 0 7 -86 52 -137 71 -18 7 -30 16 -27 21
3 5 -2 10 -10 10 -9 1 -20 3 -26 4 -5 1 -18 3 -27 5 -12 1 -5 8 19 19 54 25
58 32 15 27 -24 -3 -36 -1 -34 7 4 20 -207 16 -272 -5 -30 -10 -56 -18 -59
-18 -2 0 5 8 17 18 l22 17 -23 1 c-13 1 -45 -5 -73 -12z m460 -1003 c-3 -5 6
-18 20 -29 29 -23 31 -41 11 -81 -30 -57 -56 -60 -109 -11 -18 18 -18 19 25
73 23 31 47 56 51 56 5 1 6 -3 2 -8z m-517 -172 c14 -36 -11 -64 -75 -82 l-51
-15 -12 29 c-7 16 -14 43 -15 59 -2 26 3 33 29 47 17 9 35 22 39 30 7 11 15 8
42 -14 18 -15 38 -40 43 -54z m371 -29 c16 -13 40 -60 31 -60 -5 0 -10 4 -10
10 0 5 -13 25 -30 43 -16 19 -27 37 -23 41 4 4 11 -1 17 -11 5 -10 12 -20 15
-23z"/>
</g>
</svg>
